<svg width="1em" height="1em" viewBox="0 0 358 358" xmlns="http://www.w3.org/2000/svg">
 <g>
  <path fill="#fedb41" d="m203.80469,3.8125c86.28125,12.10156 152.65625,86.13672 152.65625,175.75391c0,97.96875 -79.45703,177.43359 -177.42578,177.43359c-67.35157,0 -126.07813,-37.57422 -156,-92.96094c-13.63672,-25.1875 -21.42969,-53.99218 -21.42969,-84.60937c0,-97.96875 79.46094,-177.42969 177.42969,-177.42969c8.35156,0.14063 16.55859,0.69922 24.76953,1.8125zm0,0"/>
  <path fill="currentColor" d="m250.28516,176.64844l-57.19532,61.64453l0,-151.96094c0,-7.65234 -6.26172,-13.91797 -13.91796,-13.91797c-7.65235,0 -13.91407,6.26563 -13.91407,13.91797l0,151.96094l-57.61328,-61.64453c-5.28906,-5.56641 -14.19531,-5.98828 -19.76172,-0.69922c-5.5664,5.28906 -5.98047,14.05859 -0.69922,19.625l81.41407,87.52734c2.64062,2.78516 6.26172,4.45313 10.15625,4.45313c3.89453,0 7.51172,-1.66797 10.16015,-4.45313l81.40625,-87.52734c5.28907,-5.56641 5.00782,-14.47266 -0.55859,-19.625c-5.55859,-5.28906 -14.1875,-4.86719 -19.47656,0.69922zm0,0"/>
 </g>
</svg>
