<svg width="1em" height="1em" xmlns="http://www.w3.org/2000/svg" fill="currentColor" viewBox="0 0 400 410">
<g>
  <path fill="currentColor" d="m379.999,111.002l0,99.999c0,99.409 -80.59,179.999 -179.999,179.999s-179.999,-80.589 -179.999,-179.998l0,-99.999l99.999,0l0,99.999c0,44.178 35.819,80 80,80c44.18,0 80,-35.82 80,-80l0,-99.999l99.999,-0.001l0,0z"/>
  <g>
   <rect fill="#FFFFFF" height="91.999" width="99.999" y="19" x="279.999"/>
   <rect fill="#FFFFFF" height="91.999" width="99.999" y="19" x="20"/>
  </g>
  <path d="m70.001,211.002c0,-5.52 -4.48,-10 -10,-10c-5.52,0 -10,4.48 -10,10s4.48,10 10,10c5.52,0 10,-4.48 10,-10z"/>
  <path d="m10.001,19.003l0,191.999c0,104.765 85.233,189.998 189.999,189.998s189.999,-85.234 189.999,-189.999l0,-191.998c0,-5.523 -4.478,-10 -10,-10l-99.999,0c-5.522,0 -10,4.477 -10,10l0,191.999c0,38.598 -31.402,70 -70,70c-38.525,0 -70,-31.168 -70,-70l0,-191.999c0,-5.523 -4.478,-10 -10,-10l-99.999,0c-5.522,0 -10,4.477 -10,10zm359.998,81.999l-80,0l0,-72l80,0l0,72zm-169.999,199.999c49.626,0 89.999,-40.374 89.999,-89.999l0,-89.999l80,0l0,89.999c0,93.737 -76.262,169.999 -169.999,169.999s-169.999,-76.262 -169.999,-169.999l0,-89.999l80,0l0,89.999c0,49.532 40.074,89.999 89.999,89.999zm-89.999,-271.998l0,72l-80,0l0,-72l80,0z"/>
  <path d="m75.292,247.768c-1.565,-5.297 -7.126,-8.326 -12.424,-6.758c-5.296,1.564 -8.322,7.126 -6.758,12.423c8.979,30.4 27.916,57.771 53.322,77.07c4.396,3.34 10.671,2.485 14.012,-1.914c3.341,-4.397 2.484,-10.671 -1.914,-14.012c-22.037,-16.739 -38.457,-40.467 -46.238,-66.809z"/>
 </g>
</svg>
